<svg width="87" height="87" viewBox="0 0 87 87" fill="none" xmlns="http://www.w3.org/2000/svg">
<path d="M82.8034 49.0116C85.0614 52.5198 84.1145 55.5894 80.2541 57.4166C76.9764 58.9514 75.3011 62.4596 75.4468 66.0408C75.7381 71.7416 72.6061 75.0305 66.9247 74.8844C63.3557 74.8113 59.8594 76.5654 58.3299 79.7812C56.2176 84.3857 52.5028 85.4089 48.2782 82.4123C45.3647 80.3659 41.5771 79.9274 38.5908 81.7545C32.6909 85.3358 27.5194 83.6548 25.0429 77.5155C23.659 74.2266 20.4541 72.1801 16.8851 72.034C11.9321 71.8147 9.38277 69.0374 9.89264 64.3598C10.3297 60.6324 8.65439 56.905 5.37668 55.0047C2.60884 53.3237 2.24465 50.9849 4.35695 48.2076C6.68777 45.2842 7.34331 41.3375 5.66804 37.9755C2.46317 31.5438 4.50263 26.1354 10.9852 23.5042C14.2629 22.1887 16.5937 19.119 16.7394 15.6109C16.8851 11.0795 19.3616 8.88686 23.5133 9.61773C27.1552 10.2024 30.5786 8.22908 32.6181 5.08634C34.2205 2.60138 36.5513 2.30904 39.1735 4.35547C42.0142 6.62117 46.0931 6.62117 49.2251 4.79399C53.5225 2.30904 57.3101 3.47843 59.4224 8.15599C60.8792 11.3718 64.0112 13.5644 67.5803 13.4913C73.4801 13.4182 76.7578 16.7072 76.3936 22.3349C76.1751 26.0623 77.9961 29.7166 81.2738 31.4707C84.4058 33.1517 85.0614 35.7098 83.1676 38.6332C81.0553 41.776 80.8368 45.8688 82.8034 49.0116Z" stroke="black" stroke-width="5" stroke-miterlimit="10" stroke-linecap="round"/>
<path d="M26.3541 38.1945C28.4861 38.1945 30.2145 36.4602 30.2145 34.3209C30.2145 32.1815 28.4861 30.4473 26.3541 30.4473C24.222 30.4473 22.4937 32.1815 22.4937 34.3209C22.4937 36.4602 24.222 38.1945 26.3541 38.1945Z" stroke="black" stroke-width="5" stroke-miterlimit="10" stroke-linecap="round"/>
<path d="M60.9522 38.1945C63.0843 38.1945 64.8126 36.4602 64.8126 34.3209C64.8126 32.1815 63.0843 30.4473 60.9522 30.4473C58.8202 30.4473 57.0918 32.1815 57.0918 34.3209C57.0918 36.4602 58.8202 38.1945 60.9522 38.1945Z" stroke="black" stroke-width="5" stroke-miterlimit="10" stroke-linecap="round"/>
<path d="M58.6941 49.0117C62.1174 50.8389 61.9718 53.8355 58.9854 56.3935C57.1645 57.9283 55.6349 59.6824 54.3966 61.7288C52.9399 64.2138 49.6622 65.4563 45.9474 64.8716C44.4178 64.5792 42.8154 64.5792 41.2858 64.8716C37.3525 65.5294 34.002 64.1407 32.5452 61.5827C31.3798 59.5362 29.7774 57.7091 27.9565 56.1742C25.1158 53.6893 25.1158 50.912 28.4663 49.1579" stroke="black" stroke-width="5" stroke-miterlimit="10" stroke-linecap="round"/>
</svg>
